<svg width="25" height="25" viewBox="0 0 25 25" fill="none" xmlns="http://www.w3.org/2000/svg">
<g clip-path="url(#clip0_1319_46)">
<path d="M9.37498 19.7917C4.16665 21.3542 4.16665 17.1875 2.08331 16.6667M16.6666 22.9167V18.8854C16.7057 18.3887 16.6386 17.8894 16.4698 17.4206C16.301 16.9519 16.0343 16.5244 15.6875 16.1667C18.9583 15.8021 22.3958 14.5625 22.3958 8.87501C22.3955 7.42066 21.8361 6.02209 20.8333 4.96876C21.3082 3.69637 21.2746 2.28995 20.7396 1.04167C20.7396 1.04167 19.5104 0.67709 16.6666 2.58334C14.2792 1.93628 11.7625 1.93628 9.37498 2.58334C6.53123 0.67709 5.30206 1.04167 5.30206 1.04167C4.76704 2.28995 4.73346 3.69637 5.20831 4.96876C4.19803 6.0299 3.63802 7.44111 3.64581 8.90626C3.64581 14.5521 7.08331 15.7917 10.3541 16.1979C10.0114 16.5521 9.74713 16.9744 9.57843 17.4374C9.40972 17.9005 9.3404 18.3938 9.37498 18.8854V22.9167" stroke="#F3F3F3" stroke-width="2.08333" stroke-linecap="round" stroke-linejoin="round"/>
</g>
<defs>
<clipPath id="clip0_1319_46">
<rect width="25" height="25" fill="white"/>
</clipPath>
</defs>
</svg>
