<svg width="25" height="25" viewBox="0 0 25 25" fill="none" xmlns="http://www.w3.org/2000/svg">
<path d="M16.6667 8.33334C18.3243 8.33334 19.914 8.99182 21.0861 10.1639C22.2582 11.336 22.9167 12.9257 22.9167 14.5833V21.875H18.75V14.5833C18.75 14.0308 18.5305 13.5009 18.1398 13.1102C17.7491 12.7195 17.2192 12.5 16.6667 12.5C16.1142 12.5 15.5842 12.7195 15.1935 13.1102C14.8028 13.5009 14.5834 14.0308 14.5834 14.5833V21.875H10.4167V14.5833C10.4167 12.9257 11.0752 11.336 12.2473 10.1639C13.4194 8.99182 15.0091 8.33334 16.6667 8.33334Z" stroke="white" stroke-width="2" stroke-linecap="round" stroke-linejoin="round"/>
<path d="M6.24998 9.375H2.08331V21.875H6.24998V9.375Z" stroke="white" stroke-width="2" stroke-linecap="round" stroke-linejoin="round"/>
<path d="M4.16665 6.25001C5.31724 6.25001 6.24998 5.31727 6.24998 4.16668C6.24998 3.01608 5.31724 2.08334 4.16665 2.08334C3.01605 2.08334 2.08331 3.01608 2.08331 4.16668C2.08331 5.31727 3.01605 6.25001 4.16665 6.25001Z" stroke="white" stroke-width="2" stroke-linecap="round" stroke-linejoin="round"/>
</svg>
