<svg width="25" height="25" viewBox="0 0 25 25" fill="none" xmlns="http://www.w3.org/2000/svg">
<path d="M23.9584 3.12501C22.9608 3.82863 21.8564 4.36679 20.6875 4.71876C20.0602 3.99741 19.2264 3.48614 18.299 3.2541C17.3716 3.02205 16.3953 3.08042 15.5022 3.42131C14.609 3.76221 13.8421 4.36918 13.3052 5.16013C12.7683 5.95108 12.4872 6.88786 12.5 7.84376V8.88542C10.6694 8.93289 8.85551 8.5269 7.21982 7.7036C5.58413 6.8803 4.17743 5.66525 3.12502 4.16667C3.12502 4.16667 -1.04165 13.5417 8.33335 17.7083C6.18807 19.1646 3.63248 19.8947 1.04169 19.7917C10.4167 25 21.875 19.7917 21.875 7.81251C21.8741 7.52235 21.8462 7.23292 21.7917 6.94792C22.8548 5.89948 23.605 4.57575 23.9584 3.12501Z" stroke="white" stroke-width="2" stroke-linecap="round" stroke-linejoin="round"/>
</svg>
