<svg width="45" height="36" viewBox="0 0 45 36" fill="none" xmlns="http://www.w3.org/2000/svg">
<path d="M11.928 22.808H5.256L4.152 26H0.624L6.648 9.224H10.56L16.584 26H13.032L11.928 22.808ZM11.016 20.12L8.592 13.112L6.168 20.12H11.016ZM20.3237 26.168C19.7157 26.168 19.2117 25.984 18.8117 25.616C18.4277 25.232 18.2357 24.76 18.2357 24.2C18.2357 23.64 18.4277 23.176 18.8117 22.808C19.2117 22.424 19.7157 22.232 20.3237 22.232C20.9157 22.232 21.4037 22.424 21.7877 22.808C22.1717 23.176 22.3637 23.64 22.3637 24.2C22.3637 24.76 22.1717 25.232 21.7877 25.616C21.4037 25.984 20.9157 26.168 20.3237 26.168ZM30.8541 26.168C29.6861 26.168 28.6301 25.968 27.6861 25.568C26.7581 25.168 26.0221 24.592 25.4781 23.84C24.9341 23.088 24.6541 22.2 24.6381 21.176H28.2381C28.2861 21.864 28.5261 22.408 28.9581 22.808C29.4061 23.208 30.0141 23.408 30.7821 23.408C31.5661 23.408 32.1821 23.224 32.6301 22.856C33.0781 22.472 33.3021 21.976 33.3021 21.368C33.3021 20.872 33.1501 20.464 32.8461 20.144C32.5421 19.824 32.1581 19.576 31.6941 19.4C31.2461 19.208 30.6221 19 29.8221 18.776C28.7341 18.456 27.8461 18.144 27.1581 17.84C26.4861 17.52 25.9021 17.048 25.4061 16.424C24.9261 15.784 24.6861 14.936 24.6861 13.88C24.6861 12.888 24.9341 12.024 25.4301 11.288C25.9261 10.552 26.6221 9.992 27.5181 9.608C28.4141 9.208 29.4381 9.008 30.5901 9.008C32.3181 9.008 33.7181 9.432 34.7901 10.28C35.8781 11.112 36.4781 12.28 36.5901 13.784H32.8941C32.8621 13.208 32.6141 12.736 32.1501 12.368C31.7021 11.984 31.1021 11.792 30.3501 11.792C29.6941 11.792 29.1661 11.96 28.7661 12.296C28.3821 12.632 28.1901 13.12 28.1901 13.76C28.1901 14.208 28.3341 14.584 28.6221 14.888C28.9261 15.176 29.2941 15.416 29.7261 15.608C30.1741 15.784 30.7981 15.992 31.5981 16.232C32.6861 16.552 33.5741 16.872 34.2621 17.192C34.9501 17.512 35.5421 17.992 36.0381 18.632C36.5341 19.272 36.7821 20.112 36.7821 21.152C36.7821 22.048 36.5501 22.88 36.0861 23.648C35.6221 24.416 34.9421 25.032 34.0461 25.496C33.1501 25.944 32.0861 26.168 30.8541 26.168ZM41.1831 26.168C40.5751 26.168 40.0711 25.984 39.6711 25.616C39.2871 25.232 39.0951 24.76 39.0951 24.2C39.0951 23.64 39.2871 23.176 39.6711 22.808C40.0711 22.424 40.5751 22.232 41.1831 22.232C41.7751 22.232 42.2631 22.424 42.6471 22.808C43.0311 23.176 43.2231 23.64 43.2231 24.2C43.2231 24.76 43.0311 25.232 42.6471 25.616C42.2631 25.984 41.7751 26.168 41.1831 26.168Z" fill="white"/>
</svg>
